<svg id='table' viewBox="0 0 118 117" fill="currentColor"
    xmlns="http://www.w3.org/2000/svg">
    <path d="M85 17.5H33C24.1634 17.5 17 24.6634 17 33.5V83C17 91.8366 24.1634 99 33 99H85C93.8366 99 101 91.8366 101 83V33.5C101 24.6634 93.8366 17.5 85 17.5Z" stroke-width="2"/>
    <path d="M83.3485 11H35.6839C34.2016 11 33 9.7984 33 8.31615C33 7.19023 33.7031 6.18121 34.7648 5.80642C53.0675 -0.654672 64.49 -0.561305 84.1871 5.84249C85.2704 6.19471 86 7.20929 86 8.34848C86 9.81288 84.8129 11 83.3485 11Z" stroke-width="2"/>
    <path d="M35.6515 106L83.3162 106C84.7984 106 86 107.202 86 108.684C86 109.81 85.297 110.819 84.2353 111.194C65.9325 117.655 54.5101 117.561 34.813 111.158C33.7296 110.805 33 109.791 33 108.652C33 107.187 34.1872 106 35.6515 106Z" stroke-width="2"/>
    <path d="M107 83.3485V35.6839C107 34.2016 108.202 33 109.684 33C110.81 33 111.819 33.7031 112.194 34.7648C118.655 53.0675 118.561 64.49 112.158 84.1871C111.805 85.2704 110.791 86 109.652 86C108.187 86 107 84.8129 107 83.3485Z" stroke-width="2"/>
    <path d="M11 34.6515L11 82.3161C11 83.7984 9.7984 85 8.31615 85C7.19023 85 6.18121 84.2969 5.80642 83.2352C-0.654672 64.9325 -0.561305 53.51 5.84249 33.8129C6.19471 32.7296 7.20929 32 8.34848 32C9.81288 32 11 33.1871 11 34.6515Z" stroke-width="2"/>
</svg>
