<svg xmlns="http://www.w3.org/2000/svg" version="1.1" xmlns:xlink="http://www.w3.org/1999/xlink" xmlns:svgjs="http://svgjs.dev/svgjs" width="1500" height="314" viewBox="0 0 1500 314"><g transform="matrix(1,0,0,1,-0.9090909090909918,-0.38358895932583437)"><svg viewBox="0 0 396 83" data-background-color="#ffc943" preserveAspectRatio="xMidYMid meet" height="314" width="1500" xmlns="http://www.w3.org/2000/svg" xmlns:xlink="http://www.w3.org/1999/xlink"><g id="tight-bounds" transform="matrix(1,0,0,1,0.2400000000000091,0.10139453383453656)"><svg viewBox="0 0 395.52 82.79721093233094" height="82.79721093233094" width="395.52"><g><svg viewBox="0 0 580.2520985599999 121.46858666666665" height="82.79721093233094" width="395.52"><g transform="matrix(1,0,0,1,184.73209855999997,16.787626666666668)"><svg viewBox="0 0 395.52 87.89333333333332" height="87.89333333333332" width="395.52"><g id="textblocktransform"><svg viewBox="0 0 395.52 87.89333333333332" height="87.89333333333332" width="395.52" id="textblock"><g><svg viewBox="0 0 395.52 87.89333333333332" height="87.89333333333332" width="395.52"><g transform="matrix(1,0,0,1,0,0)"><svg width="395.52" viewBox="3.65 -36.75 220.03 48.900000000000006" height="87.89333333333332" data-palette-color="#010101"><path d="M3.65 12.15L3.65-22.95 8.85-22.95 8.85-18.7Q11.6-23.55 17.45-23.55L17.45-23.55Q22.3-23.55 25.3-20.48 28.3-17.4 28.3-11.6L28.3-11.6Q28.3-8 26.83-5.25 25.35-2.5 22.83-1 20.3 0.5 17.2 0.5L17.2 0.5Q14.3 0.5 12.18-0.53 10.05-1.55 8.85-3.45L8.85-3.45 8.9 12.15 3.65 12.15ZM15.95-4.05Q19.2-4.05 20.95-6.13 22.7-8.2 22.7-11.45L22.7-11.45Q22.7-14.85 20.98-16.88 19.25-18.9 15.95-18.9L15.95-18.9Q14.15-18.9 12.58-18.03 11-17.15 10.08-15.53 9.15-13.9 9.15-11.75L9.15-11.75 9.15-11.4Q9.15-9.25 10.08-7.58 11-5.9 12.55-4.98 14.1-4.05 15.95-4.05L15.95-4.05ZM34.5 0L34.5-36.75 39.85-36.75 39.85 0 34.5 0ZM57.6 0.5Q54.5 0.5 51.87-0.98 49.25-2.45 47.67-5.18 46.1-7.9 46.1-11.55L46.1-11.55Q46.1-15.15 47.47-17.85 48.85-20.55 51.4-22.05 53.95-23.55 57.4-23.55L57.4-23.55Q59.4-23.55 61.15-22.85 62.9-22.15 64.09-21.13 65.3-20.1 65.7-19.1L65.7-19.1 65.8-22.95 70.95-22.95 70.95 0 65.84 0 65.75-4.05Q64.9-2.25 62.65-0.88 60.4 0.5 57.6 0.5L57.6 0.5ZM58.5-4Q61.34-4 63.3-5.98 65.25-7.95 65.25-11.15L65.25-11.15 65.25-11.5Q65.25-13.65 64.34-15.35 63.45-17.05 61.9-18 60.34-18.95 58.5-18.95L58.5-18.95Q55.3-18.95 53.55-16.88 51.8-14.8 51.8-11.5L51.8-11.5Q51.8-8.15 53.52-6.08 55.25-4 58.5-4L58.5-4ZM80.19 0L80.19-18.55 76.14-18.55 76.14-22.95 80.19-22.95 80.19-32.3 85.64-33.5 85.64-22.95 90.94-22.95 90.94-18.55 85.64-18.55 85.64 0 80.19 0ZM106.19 0.5Q102.09 0.5 99.34-1.13 96.59-2.75 95.29-5.48 93.99-8.2 93.99-11.45L93.99-11.45Q93.99-15.1 95.52-17.85 97.04-20.6 99.74-22.08 102.44-23.55 105.84-23.55L105.84-23.55Q111.14-23.55 113.72-20.63 116.29-17.7 116.29-12.4L116.29-12.4Q116.29-11.05 116.14-9.6L116.14-9.6 99.64-9.6Q100.19-6.55 101.82-5.2 103.44-3.85 106.34-3.85L106.34-3.85Q108.74-3.85 110.29-4.25 111.84-4.65 113.14-5.35L113.14-5.35 114.79-1.5Q113.54-0.7 111.39-0.1 109.24 0.5 106.19 0.5L106.19 0.5ZM99.64-13.35L111.04-13.35Q111.09-16.45 109.69-17.73 108.29-19 105.69-19L105.69-19Q100.44-19 99.64-13.35L99.64-13.35ZM130.39 0L118.29-22.95 124.44-22.95 129.39-12.6 130.99-8.45 132.59-12.6 137.49-22.95 143.49-22.95 131.44 0 130.39 0ZM147.34 0L147.34-22.95 152.94-22.95 152.94 0 147.34 0ZM150.09-27.25Q148.54-27.25 147.49-28.3 146.44-29.35 146.44-30.9L146.44-30.9Q146.44-32.3 147.49-33.3 148.54-34.3 150.09-34.3L150.09-34.3Q151.59-34.3 152.64-33.3 153.69-32.3 153.69-30.9L153.69-30.9Q153.69-29.35 152.66-28.3 151.64-27.25 150.09-27.25L150.09-27.25ZM168.33 0.5Q165.93 0.5 163.36-0.13 160.78-0.75 159.68-1.6L159.68-1.6 161.48-5.85Q164.48-3.75 168.33-3.75L168.33-3.75Q172.18-3.75 172.18-6L172.18-6Q172.18-7 171.38-7.55 170.58-8.1 168.53-8.85L168.53-8.85 166.63-9.55Q163.63-10.75 161.88-12.43 160.13-14.1 160.13-16.85L160.13-16.85Q160.13-20 162.61-21.78 165.08-23.55 169.23-23.55L169.23-23.55Q171.28-23.55 173.26-23.1 175.23-22.65 176.28-21.95L176.28-21.95 174.33-17.65Q173.68-18.3 172.26-18.78 170.83-19.25 169.08-19.25L169.08-19.25Q165.53-19.25 165.53-17.1L165.53-17.1Q165.53-15.9 166.48-15.28 167.43-14.65 169.58-13.9L169.58-13.9Q169.78-13.85 171.13-13.35L171.13-13.35Q174.33-12.1 175.88-10.5 177.43-8.9 177.43-6.4L177.43-6.4Q177.43-3 174.86-1.25 172.28 0.5 168.33 0.5L168.33 0.5ZM185.03 0L185.03-18.55 180.98-18.55 180.98-22.95 185.03-22.95 185.03-32.3 190.48-33.5 190.48-22.95 195.78-22.95 195.78-18.55 190.48-18.55 190.48 0 185.03 0ZM210.33 0.5Q207.23 0.5 204.6-0.98 201.98-2.45 200.4-5.18 198.83-7.9 198.83-11.55L198.83-11.55Q198.83-15.15 200.2-17.85 201.58-20.55 204.13-22.05 206.68-23.55 210.13-23.55L210.13-23.55Q212.13-23.55 213.88-22.85 215.63-22.15 216.83-21.13 218.03-20.1 218.43-19.1L218.43-19.1 218.53-22.95 223.68-22.95 223.68 0 218.58 0 218.48-4.05Q217.63-2.25 215.38-0.88 213.13 0.5 210.33 0.5L210.33 0.5ZM211.23-4Q214.08-4 216.03-5.98 217.98-7.95 217.98-11.15L217.98-11.15 217.98-11.5Q217.98-13.65 217.08-15.35 216.18-17.05 214.63-18 213.08-18.95 211.23-18.95L211.23-18.95Q208.03-18.95 206.28-16.88 204.53-14.8 204.53-11.5L204.53-11.5Q204.53-8.15 206.25-6.08 207.98-4 211.23-4L211.23-4Z" opacity="1" transform="matrix(1,0,0,1,0,0)" fill="#010101" class="wordmark-text-0" data-fill-palette-color="primary" id="text-0"></path></svg></g></svg></g></svg></g></svg></g><g><svg viewBox="0 0 163.98259199999998 121.46858666666665" height="121.46858666666665" width="163.98259199999998"><g><svg xmlns="http://www.w3.org/2000/svg" xmlns:xlink="http://www.w3.org/1999/xlink" version="1.1" x="0" y="0" viewBox="14 21 54 40" enable-background="new 0 0 80 80" xml:space="preserve" height="121.46858666666665" width="163.98259199999998" class="icon-icon-0" data-fill-palette-color="accent" id="icon-0"><g fill="#010101" data-fill-palette-color="accent"><path fill="#010101" d="M68 57H14V56C14 40.859 25.859 29 41 29S68 40.859 68 56zM16.019 55H65.982C65.473 41.463 54.684 31 41 31S16.527 41.463 16.019 55" data-fill-palette-color="accent"></path></g><g fill="#010101" data-fill-palette-color="accent"><rect x="14" y="59" fill="#010101" width="54" height="2" data-fill-palette-color="accent"></rect></g><g fill="#010101" data-fill-palette-color="accent"><rect x="40" y="26" fill="#010101" width="2" height="4" data-fill-palette-color="accent"></rect></g><g fill="#010101" data-fill-palette-color="accent"><path fill="#010101" d="M41 27C39.346 27 38 25.654 38 24S39.346 21 41 21 44 22.346 44 24 42.654 27 41 27M41 23A1 1 0 1 0 41 25 1 1 0 0 0 41 23" data-fill-palette-color="accent"></path></g></svg></g></svg></g></svg></g><defs></defs></svg><rect width="395.52" height="82.79721093233094" fill="none" stroke="none" visibility="hidden"></rect></g></svg></g></svg>