<svg width="1498" height="314" viewBox="0 0 1498 314" fill="none" xmlns="http://www.w3.org/2000/svg">
<g clip-path="url(#clip0_2_3)">
<g clip-path="url(#clip1_2_3)">
<g clip-path="url(#clip2_2_3)">
<g clip-path="url(#clip3_2_3)">
<g clip-path="url(#clip4_2_3)">
<g clip-path="url(#clip5_2_3)">
<path d="M477.356 269.942V107.254H501.458V126.952C509.956 111.966 523.243 104.473 541.319 104.473C556.306 104.473 568.434 109.216 577.704 118.702C586.974 128.219 591.609 141.939 591.609 159.861C591.609 170.985 589.338 180.796 584.796 189.293C580.223 197.791 574.043 204.357 566.256 208.992C558.438 213.627 549.74 215.944 540.161 215.944C531.2 215.944 523.444 214.353 516.893 211.17C510.311 208.019 505.166 203.507 501.458 197.636L501.69 269.942H477.356ZM534.367 194.855C544.409 194.855 552.134 191.642 557.542 185.214C562.949 178.818 565.653 170.599 565.653 160.556C565.653 150.05 562.996 141.661 557.681 135.388C552.335 129.146 544.564 126.025 534.367 126.025C528.805 126.025 523.598 127.37 518.747 130.058C513.865 132.777 510.002 136.64 507.159 141.645C504.286 146.682 502.849 152.522 502.849 159.166V160.788C502.849 167.431 504.286 173.333 507.159 178.494C510.002 183.685 513.818 187.702 518.608 190.545C523.397 193.418 528.65 194.855 534.367 194.855ZM620.346 213.627V43.2905H645.144V213.627H620.346ZM727.415 215.944C717.836 215.944 708.983 213.658 700.856 209.085C692.761 204.542 686.271 198.053 681.389 189.618C676.538 181.213 674.112 171.371 674.112 160.093C674.112 148.969 676.229 139.235 680.462 130.892C684.727 122.549 690.798 116.06 698.678 111.425C706.557 106.79 715.827 104.473 726.488 104.473C732.668 104.473 738.462 105.554 743.869 107.717C749.277 109.88 753.819 112.537 757.496 115.689C761.235 118.872 763.722 122.008 764.958 125.098L765.422 107.254H789.292V213.627H765.607L765.19 194.855C762.564 200.417 757.774 205.315 750.822 209.548C743.869 213.812 736.067 215.944 727.415 215.944ZM731.586 195.087C740.362 195.087 747.778 192.028 753.834 185.91C759.86 179.822 762.873 171.835 762.873 161.947V160.324C762.873 153.681 761.467 147.733 758.655 142.48C755.905 137.227 752.135 133.132 747.345 130.197C742.525 127.261 737.272 125.794 731.586 125.794C721.698 125.794 714.051 128.992 708.643 135.388C703.236 141.815 700.532 150.127 700.532 160.324C700.532 170.676 703.189 179.05 708.504 185.446C713.85 191.873 721.544 195.087 731.586 195.087ZM832.12 213.627V127.648H813.348V107.254H832.12V63.9163L857.38 58.3543V107.254H881.946V127.648H857.38V213.627H832.12ZM952.63 215.944C939.961 215.944 929.378 213.426 920.88 208.389C912.383 203.384 906.125 196.663 902.108 188.227C898.091 179.822 896.083 170.599 896.083 160.556C896.083 149.278 898.447 139.39 903.174 130.892C907.871 122.395 914.391 115.859 922.734 111.286C931.077 106.744 940.502 104.473 951.008 104.473C967.385 104.473 979.559 108.984 987.532 118.007C995.473 127.061 999.443 139.776 999.443 156.153C999.443 160.324 999.212 164.65 998.748 169.131H922.271C923.97 178.555 927.338 185.353 932.375 189.525C937.381 193.696 944.364 195.782 953.325 195.782C960.741 195.782 966.844 195.164 971.633 193.928C976.423 192.692 980.826 190.993 984.843 188.83L992.491 206.674C988.628 209.146 983.375 211.309 976.732 213.163C970.088 215.017 962.054 215.944 952.63 215.944ZM922.271 151.75H975.11C975.264 142.171 973.178 135.404 968.852 131.448C964.526 127.524 958.346 125.562 950.312 125.562C934.09 125.562 924.743 134.291 922.271 151.75ZM1064.8 213.627L1008.71 107.254H1037.22L1060.16 155.226L1067.58 174.461L1074.99 155.226L1097.71 107.254H1125.52L1069.66 213.627H1064.8ZM1143.36 213.627V107.254H1169.32V213.627H1143.36ZM1156.11 87.3231C1151.32 87.3231 1147.3 85.7008 1144.06 82.4563C1140.81 79.2118 1139.19 75.1948 1139.19 70.4053C1139.19 66.0793 1140.81 62.3713 1144.06 59.2813C1147.3 56.1913 1151.32 54.6463 1156.11 54.6463C1160.74 54.6463 1164.68 56.1913 1167.93 59.2813C1171.17 62.3713 1172.79 66.0793 1172.79 70.4053C1172.79 75.1948 1171.2 79.2118 1168.02 82.4563C1164.87 85.7008 1160.9 87.3231 1156.11 87.3231ZM1240.65 215.944C1233.23 215.944 1225.55 214.971 1217.61 213.024C1209.64 211.109 1203.96 208.837 1200.56 206.211L1208.9 186.512C1218.17 193.001 1228.75 196.246 1240.65 196.246C1252.55 196.246 1258.49 192.769 1258.49 185.817C1258.49 182.727 1257.26 180.332 1254.79 178.633C1252.31 176.933 1247.91 174.925 1241.58 172.607L1232.77 169.363C1223.5 165.655 1216.16 161.205 1210.75 156.014C1205.35 150.854 1202.64 144.025 1202.64 135.527C1202.64 125.794 1206.47 118.177 1214.14 112.677C1221.77 107.207 1232 104.473 1244.82 104.473C1251.16 104.473 1257.38 105.168 1263.5 106.558C1269.59 107.949 1274.25 109.726 1277.5 111.889L1268.46 131.819C1266.45 129.811 1263.25 128.065 1258.86 126.582C1254.45 125.129 1249.53 124.403 1244.13 124.403C1233.16 124.403 1227.67 127.725 1227.67 134.368C1227.67 138.076 1229.14 140.888 1232.07 142.804C1235.01 144.751 1239.8 146.883 1246.44 149.2C1247.06 149.355 1249.46 150.205 1253.63 151.75C1263.52 155.612 1270.85 160.015 1275.64 164.959C1280.43 169.903 1282.83 176.238 1282.83 183.963C1282.83 194.469 1278.86 202.426 1270.92 207.833C1262.94 213.241 1252.85 215.944 1240.65 215.944ZM1318.05 213.627V127.648H1299.28V107.254H1318.05V63.9163L1343.31 58.3543V107.254H1367.88V127.648H1343.31V213.627H1318.05ZM1435.32 215.944C1425.74 215.944 1416.89 213.658 1408.76 209.085C1400.67 204.542 1394.18 198.053 1389.29 189.618C1384.44 181.213 1382.02 171.371 1382.02 160.093C1382.02 148.969 1384.13 139.235 1388.37 130.892C1392.63 122.549 1398.7 116.06 1406.58 111.425C1414.46 106.79 1423.73 104.473 1434.39 104.473C1440.57 104.473 1446.37 105.554 1451.77 107.717C1457.18 109.88 1461.74 112.537 1465.45 115.689C1469.16 118.872 1471.63 122.008 1472.86 125.098L1473.33 107.254H1497.2V213.627H1473.56L1473.09 194.855C1470.47 200.417 1465.68 205.315 1458.73 209.548C1451.77 213.812 1443.97 215.944 1435.32 215.944ZM1439.49 195.087C1448.3 195.087 1455.71 192.028 1461.74 185.91C1467.76 179.822 1470.78 171.835 1470.78 161.947V160.324C1470.78 153.681 1469.39 147.733 1466.61 142.48C1463.82 137.227 1460.04 133.132 1455.25 130.197C1450.46 127.261 1445.21 125.794 1439.49 125.794C1429.6 125.794 1421.96 128.992 1416.55 135.388C1411.14 141.815 1408.44 150.127 1408.44 160.324C1408.44 170.676 1411.09 179.05 1416.41 185.446C1421.75 191.873 1429.45 195.087 1439.49 195.087Z" fill="#DBDBDB"/>
</g>
</g>
</g>
</g>
<g clip-path="url(#clip6_2_3)">
<g clip-path="url(#clip7_2_3)">
<path d="M423.803 281.91H0.938599V274.079C0.938599 155.512 93.8043 62.6466 212.371 62.6466C330.937 62.6466 423.803 155.512 423.803 274.079V281.91ZM16.749 266.248H408C404.014 160.242 319.528 78.3082 212.371 78.3082C105.214 78.3082 20.7271 160.242 16.749 266.248Z" fill="#DBDBDB"/>
<path d="M423.803 297.571H0.938599V313.233H423.803V297.571Z" fill="#DBDBDB"/>
<path d="M220.202 39.1541H204.54V70.4774H220.202V39.1541Z" fill="#DBDBDB"/>
<path d="M212.371 46.9849C199.419 46.9849 188.878 36.4446 188.878 23.4925C188.878 10.5403 199.419 0 212.371 0C225.323 0 235.863 10.5403 235.863 23.4925C235.863 36.4446 225.323 46.9849 212.371 46.9849ZM212.371 15.6616C210.294 15.6616 208.302 16.4867 206.834 17.9552C205.365 19.4238 204.54 21.4156 204.54 23.4925C204.54 25.5693 205.365 27.5611 206.834 29.0297C208.302 30.4983 210.294 31.3233 212.371 31.3233C214.448 31.3233 216.439 30.4983 217.908 29.0297C219.377 27.5611 220.202 25.5693 220.202 23.4925C220.202 21.4156 219.377 19.4238 217.908 17.9552C216.439 16.4867 214.448 15.6616 212.371 15.6616Z" fill="#DBDBDB"/>
</g>
</g>
</g>
</g>
<defs>
<clipPath id="clip0_2_3">
<rect width="1496.3" height="313.233" fill="white" transform="translate(0.938599)"/>
</clipPath>
<clipPath id="clip1_2_3">
<rect width="1496.3" height="313.233" fill="white" transform="translate(0.938599)"/>
</clipPath>
<clipPath id="clip2_2_3">
<rect width="1019.93" height="226.652" fill="white" transform="translate(477.31 43.2905)"/>
</clipPath>
<clipPath id="clip3_2_3">
<rect width="1019.93" height="226.652" fill="white" transform="translate(477.31 43.2905)"/>
</clipPath>
<clipPath id="clip4_2_3">
<rect width="1019.93" height="226.652" fill="white" transform="translate(477.31 43.2905)"/>
</clipPath>
<clipPath id="clip5_2_3">
<rect width="1019.93" height="226.652" fill="white" transform="translate(477.31 43.2905)"/>
</clipPath>
<clipPath id="clip6_2_3">
<rect width="422.864" height="313.233" fill="white" transform="translate(0.938599)"/>
</clipPath>
<clipPath id="clip7_2_3">
<rect width="422.864" height="313.233" fill="white" transform="translate(0.938599)"/>
</clipPath>
</defs>
</svg>
